<svg version="1.0" xmlns="http://www.w3.org/2000/svg"
 width="512.000000pt" height="512.000000pt" viewBox="0 0 512.000000 512.000000" fill="context-fill" fill-opacity="context-fill-opacity">

<g transform="translate(0.000000,512.000000) scale(0.100000,-0.100000)">
<path d="M1053 4465 c-136 -30 -284 -144 -351 -272 -63 -120 -62 -86 -62
-1318 0 -1234 -2 -1186 62 -1309 42 -79 146 -183 225 -224 86 -45 174 -62 329
-62 l132 0 4 -112 c3 -83 10 -129 26 -173 61 -167 210 -299 383 -340 93 -22
2158 -22 2262 0 95 20 181 68 257 145 77 76 125 162 145 257 22 104 22 2279 0
2372 -22 93 -71 177 -145 251 -120 121 -231 160 -456 160 l-132 0 -4 113 c-3
82 -10 128 -26 172 -45 123 -138 230 -253 290 -128 67 -79 65 -1264 64 -861 0
-1082 -3 -1132 -14z m2272 -223 c63 -29 129 -93 163 -157 21 -41 27 -67 30
-147 l4 -98 -828 0 c-918 0 -897 1 -1023 -65 -114 -60 -207 -166 -254 -290
l-22 -60 -3 -967 -2 -968 -124 0 c-172 0 -238 21 -316 99 -103 102 -95 -4 -95
1291 0 1058 1 1128 18 1177 20 57 79 130 131 162 82 51 63 50 1206 48 l1065
-2 50 -23z m721 -633 c56 -17 77 -31 125 -78 47 -48 61 -69 78 -125 21 -67 21
-80 21 -1166 0 -1086 0 -1099 -21 -1166 -17 -56 -31 -77 -78 -125 -49 -48 -69
-61 -127 -78 -69 -21 -77 -21 -1134 -19 l-1065 3 -50 23 c-63 29 -129 92 -163
157 l-27 50 0 1155 0 1155 24 45 c46 89 131 159 218 179 21 5 509 9 1084 10
1036 1 1048 1 1115 -20z"/>
<path d="M3693 2758 c-11 -7 -227 -211 -478 -453 -252 -242 -460 -441 -464
-442 -3 0 -57 54 -120 122 -63 68 -167 178 -230 244 -114 119 -117 121 -159
121 -63 0 -102 -41 -102 -105 0 -43 4 -51 58 -108 32 -34 156 -167 276 -295
128 -136 228 -235 242 -238 44 -11 77 7 163 90 668 643 943 911 951 926 42 79
-60 182 -137 138z"/>
</g>
</svg>
