<svg version="1.0" xmlns="http://www.w3.org/2000/svg"
 width="512.000000pt" height="512.000000pt" viewBox="0 0 512.000000 512.000000"
 fill="context-fill" fill-opacity="context-fill-opacity">

<g transform="translate(0.000000,512.000000) scale(0.100000,-0.100000)">
<path d="M445 4899 c-36 -5 -93 -25 -142 -49 -133 -66 -231 -178 -279 -320
-18 -53 -19 -125 -19 -1970 0 -1845 1 -1917 19 -1970 66 -193 240 -343 431
-370 95 -13 4115 -13 4210 0 191 27 365 177 431 370 18 53 19 125 19 1970 0
1845 -1 1917 -19 1970 -66 193 -240 343 -431 370 -88 12 -4134 11 -4220 -1z
m135 -434 c66 -34 76 -121 19 -169 -94 -79 -223 42 -148 138 36 46 80 56 129
31z m418 4 c69 -24 87 -116 33 -170 -71 -71 -183 -12 -172 91 4 31 27 64 56
76 37 16 44 17 83 3z m465 -29 c39 -44 38 -98 -4 -139 -81 -82 -218 15 -165
118 35 67 118 77 169 21z m3445 -1452 l-3 -853 -443 0 -444 0 -204 510 c-132
330 -211 516 -225 528 -28 22 -62 31 -95 23 -62 -16 -60 -11 -239 -726 -92
-371 -171 -678 -174 -682 -4 -4 -76 202 -161 459 -171 516 -175 523 -251 523
-80 0 -74 12 -350 -725 -138 -369 -254 -673 -257 -677 -4 -4 -86 385 -181 865
-96 480 -180 886 -187 904 -13 34 -58 63 -96 63 -13 0 -37 -9 -54 -19 -28 -17
-50 -66 -237 -532 l-205 -514 -443 0 -444 0 -3 853 -2 852 2350 0 2350 0 -2
-852z m-1208 -633 c96 -240 160 -389 176 -405 l24 -25 505 -3 505 -3 0 -582
c0 -599 -4 -666 -40 -737 -26 -51 -93 -115 -148 -142 l-47 -23 -2115 0 -2115
0 -47 23 c-55 27 -122 91 -148 142 -36 71 -40 138 -40 737 l0 582 505 3 505 3
24 25 c15 16 79 161 171 393 81 202 149 367 150 365 2 -2 83 -401 180 -888 97
-487 184 -898 192 -913 20 -39 75 -62 116 -47 17 5 38 17 48 26 9 8 138 337
285 730 147 393 270 714 273 714 4 0 80 -222 170 -492 147 -442 168 -496 198
-527 30 -30 38 -33 75 -28 82 11 72 -17 265 756 97 386 177 700 178 699 2 -2
71 -174 155 -383z"/>
</g>
</svg>
